<svg xmlns="http://www.w3.org/2000/svg" width="47.13" height="47.21" viewBox="0 0 47.13 47.21"><defs><style>.a{fill:#af9744;}</style></defs><path class="a" d="M51.475,18.406a17.091,17.091,0,0,0-1.1-5.8,12.066,12.066,0,0,0-6.892-6.892,17.29,17.29,0,0,0-5.721-1.1c-2.518-.113-3.315-.145-9.708-.145s-7.211,0-9.71.145a17.29,17.29,0,0,0-5.718,1.1,12.059,12.059,0,0,0-6.892,6.892,17.154,17.154,0,0,0-1.1,5.718c-.113,2.52-.147,3.319-.147,9.71s0,7.208.147,9.71a17.252,17.252,0,0,0,1.1,5.723,12.066,12.066,0,0,0,6.894,6.889,17.232,17.232,0,0,0,5.718,1.178c2.52.113,3.319.147,9.71.147s7.211,0,9.71-.147a17.248,17.248,0,0,0,5.721-1.1,12.08,12.08,0,0,0,6.892-6.892,17.191,17.191,0,0,0,1.1-5.723c.113-2.518.147-3.315.147-9.71s-.005-7.2-.152-9.708ZM28.043,40.122a12.1,12.1,0,1,1,12.1-12.1,12.1,12.1,0,0,1-12.1,12.1ZM40.626,18.3a2.821,2.821,0,1,1,2.818-2.821A2.818,2.818,0,0,1,40.626,18.3Z" transform="translate(-4.495 -4.47)"/><path class="a" d="M29.205,21.324a7.86,7.86,0,1,1-7.86-7.861,7.861,7.861,0,0,1,7.86,7.861Z" transform="translate(2.2 2.228)"/></svg>