<svg xmlns="http://www.w3.org/2000/svg" width="47.21" height="47.21" viewBox="0 0 47.21 47.21"><defs><style>.a{fill:#af9744;}</style></defs><path class="a" d="M23.605,47.21a23.156,23.156,0,0,1-9.175-1.867A23.1,23.1,0,0,1,1.867,32.78a23.471,23.471,0,0,1,0-18.349A23.1,23.1,0,0,1,14.431,1.867a23.471,23.471,0,0,1,18.349,0A23.1,23.1,0,0,1,45.343,14.431a23.471,23.471,0,0,1,0,18.349A23.1,23.1,0,0,1,32.78,45.343a23.156,23.156,0,0,1-9.175,1.867ZM37.482,11.8a8.523,8.523,0,0,0-.83.508l-.9.6-.852.462-.968.323a5.433,5.433,0,0,0-4.2-1.89q-5.394,0-5.394,4.518v2.72q-7.423-.369-11.388-5.44A3.723,3.723,0,0,0,11.8,16.23a5.254,5.254,0,0,0,2.26,4.611q-.277,0-.784.046a3.5,3.5,0,0,1-.807,0,2.31,2.31,0,0,1-.669-.231,5.452,5.452,0,0,0,1.129,3.526A5.206,5.206,0,0,0,16.044,26a1.588,1.588,0,0,1-1.29.553,2.09,2.09,0,0,1-1.29-.414,3.077,3.077,0,0,0,1.728,2.789,8.041,8.041,0,0,0,3.9,1.037,5,5,0,0,1-2.421,1.867,9.191,9.191,0,0,1-3.389.622,6.935,6.935,0,0,1-1.776-.323q-1.13-.323-1.175-.323a6.025,6.025,0,0,0,3.02,2.536,13.735,13.735,0,0,0,5.786,1.06A15.211,15.211,0,0,0,24.9,34.325a14.336,14.336,0,0,0,4.564-2.881,18.93,18.93,0,0,0,3.251-4.1,19.184,19.184,0,0,0,2.029-4.772,18.639,18.639,0,0,0,.667-4.864q0-.092.553-.392a14.877,14.877,0,0,0,1.29-.807,4.079,4.079,0,0,0,1.107-1.061q-2.489,0-3.319.092A6.2,6.2,0,0,0,37.482,11.8Z" transform="translate(0 0)"/></svg>