<svg xmlns="http://www.w3.org/2000/svg" width="53.315" height="54.735" viewBox="0 0 53.315 54.735"><defs><style>.a{fill:none;stroke:#424448;stroke-linecap:round;stroke-miterlimit:10;stroke-width:1.634px;}.b{fill:#a48431;fill-rule:evenodd;}</style></defs><g transform="translate(-756.745 -132.027)"><path class="a" d="M797.3,139.539h5.668a6.272,6.272,0,0,1,6.272,6.271v33.864a6.271,6.271,0,0,1-6.272,6.271H763.833a6.271,6.271,0,0,1-6.271-6.271V145.81a6.271,6.271,0,0,1,6.271-6.271h3.475"/><path class="b" d="M787.58,159.522h7.37a.719.719,0,0,1,.716.718v22.354h-2.354V172.221a.984.984,0,0,0-1.027-.93h-2.04a.984.984,0,0,0-1.027.93v10.373h-2.354V160.24a.719.719,0,0,1,.716-.718m-3.1-7.641a2.45,2.45,0,0,1-.22.572l-.442.828.394.226a.759.759,0,0,0,1.016-.316c.3-.545-.008-.892-.418-1.124Zm-6.764-11.02c1.368,1.21,2.954.568,4.465-.044,1.6-.647,3.132-1.268,4.65-.4l5.475,3.121a2.4,2.4,0,0,1,.441.321l-2.561-6.607a4.439,4.439,0,0,1-2.862-.511c-2.354-.962-3.693-.725-5.439.753-.237.2-.462.412-.674.626a19.394,19.394,0,0,1-3.5,2.744m-.076,5.325a2.437,2.437,0,0,0-1.361-.278,2.442,2.442,0,0,0-3.78-1.444,2.026,2.026,0,0,0-.727-1.2l2.938-6.647a4.687,4.687,0,0,0,3.08-.026,5.073,5.073,0,0,1,2.74-.108c-.174.158-.344.321-.508.487a15.872,15.872,0,0,1-1.75,1.517,21.559,21.559,0,0,1-2.08,1.369,1.01,1.01,0,0,0-.357,1.384.9.9,0,0,0,.07.1c2.069,2.662,4.148,2.09,6.858.993,1.225-.5,2.4-.973,3.231-.5l5.475,3.121a.78.78,0,0,1,.308,1.051.763.763,0,0,1-1.017.308c-1.247-.723-2.523-1.414-3.777-2.131a.818.818,0,1,0-.812,1.42q1.881,1.076,3.775,2.13a.769.769,0,0,1,.111,1.281.745.745,0,0,1-.834.069l-.009-.006-4.954-2.787a.818.818,0,1,0-.814,1.418l.015.008c1.349.76,2.7,1.532,4.045,2.288a.766.766,0,0,1-.727,1.349l-2.845-1.61a17.182,17.182,0,0,1-5.171-2.3A2.43,2.43,0,0,0,777.644,146.186Zm-7.266-13.593-4.371,9.89a.953.953,0,0,0,.485,1.254l1.9.841a.953.953,0,0,0,1.254-.485l4.371-9.89a.953.953,0,0,0-.484-1.254l-1.9-.841A.954.954,0,0,0,770.378,132.593Zm24.307.7,3.909,10.082a.954.954,0,0,1-.543,1.23l-1.941.753a.954.954,0,0,1-1.23-.543l-3.909-10.082a.954.954,0,0,1,.543-1.23l1.941-.753A.955.955,0,0,1,794.685,133.295Zm-1.491,1.018a.646.646,0,1,0,.647.646.646.646,0,0,0-.647-.646m-21.374-.635a.647.647,0,1,1-.676.616A.647.647,0,0,1,771.82,133.678Zm5.583,18.2a.811.811,0,0,0,1.443.525l1.27-2.442a.811.811,0,0,0-1.347-.727Zm-.08-3.378a.811.811,0,0,0-.665-.933.819.819,0,0,0-.609.142l-1.6,2.823a.811.811,0,0,0,.3,1.088.824.824,0,0,0,1.066-.223.791.791,0,0,0,.066-.107Zm-2.642-1.715a.812.812,0,0,0-1.462-.7l-1.005,1.879a.811.811,0,0,0,1.183,1.046Zm5.652,6.3a.812.812,0,0,0,1.526.425l.964-1.8a.811.811,0,0,0-1.26-.984Zm2.233,29.5v-20.82h-7.472a.716.716,0,0,0-.715.714v19.391a.717.717,0,0,0,.715.715Zm-6.342-17.136h1.121a.411.411,0,0,1,.411.412v1.12a.411.411,0,0,1-.411.412h-1.121a.411.411,0,0,1-.412-.412v-1.12a.411.411,0,0,1,.412-.412m3.377,6.652h1.121a.413.413,0,0,1,.412.412V178.5a.414.414,0,0,1-.412.412H779.6a.414.414,0,0,1-.412-.412v-5.976a.413.413,0,0,1,.412-.412m-3.377,0h1.12a.411.411,0,0,1,.412.412V178.5a.413.413,0,0,1-.412.412h-1.12a.413.413,0,0,1-.412-.412v-5.976a.411.411,0,0,1,.412-.412m3.377-3.377h1.121a.412.412,0,0,1,.412.411v1.121a.414.414,0,0,1-.412.412H779.6a.414.414,0,0,1-.412-.412v-1.121a.412.412,0,0,1,.412-.411m-3.377,0h1.12a.411.411,0,0,1,.412.411v1.121a.413.413,0,0,1-.412.412h-1.12a.413.413,0,0,1-.412-.412v-1.121a.411.411,0,0,1,.412-.411m3.377-3.275h1.121a.413.413,0,0,1,.412.412v1.12a.413.413,0,0,1-.412.412H779.6a.413.413,0,0,1-.412-.412v-1.12a.413.413,0,0,1,.412-.412m25.889,16.421V162.488a.716.716,0,0,0-.715-.714H797.3v20.82h7.472a.717.717,0,0,0,.715-.715m-6.243-16.421h1.124a.411.411,0,0,1,.411.412v1.121a.411.411,0,0,1-.411.411h-1.124a.41.41,0,0,1-.409-.411V165.87A.411.411,0,0,1,799.247,165.458Zm3.275,6.652h1.124a.411.411,0,0,1,.411.412V178.5a.413.413,0,0,1-.411.412h-1.124a.411.411,0,0,1-.409-.412v-5.976A.411.411,0,0,1,802.522,172.11Zm-3.275,0h1.124a.411.411,0,0,1,.411.412V178.5a.412.412,0,0,1-.411.412h-1.124a.411.411,0,0,1-.409-.412v-5.976A.411.411,0,0,1,799.247,172.11Zm3.275-3.377h1.124a.411.411,0,0,1,.411.411v1.121a.413.413,0,0,1-.411.412h-1.124a.411.411,0,0,1-.409-.412v-1.12A.411.411,0,0,1,802.522,168.733Zm-3.275,0h1.124a.411.411,0,0,1,.411.411v1.121a.412.412,0,0,1-.411.412h-1.124a.411.411,0,0,1-.409-.412v-1.12A.411.411,0,0,1,799.247,168.733Zm3.277-3.275h1.122a.411.411,0,0,1,.411.412v1.12a.411.411,0,0,1-.411.412h-1.122a.411.411,0,0,1-.411-.412v-1.12a.411.411,0,0,1,.411-.412M786.051,157.4h-14.54a.835.835,0,0,1-.835-.7.819.819,0,0,1,.81-.94h14.565a.816.816,0,0,1,1.061-1.237l1.8,1.4a.815.815,0,0,1,.012,1.3l-1.809,1.413a.816.816,0,0,1-1.061-1.237Zm-23.336,3.377h6.556a.716.716,0,0,1,.713.715v19.9a.715.715,0,0,1-.713.714h-1.436v-9.847a.9.9,0,0,0-.95-.841H765a.9.9,0,0,0-.95.841v9.847h-1.333a.714.714,0,0,1-.713-.714v-19.9a.715.715,0,0,1,.713-.715m1.533-2.865h.926v-1.13a.835.835,0,0,1,.7-.835.819.819,0,0,1,.94.81v1.155h.824a.708.708,0,0,1,.712.7v.425h-4.81v-.425a.707.707,0,0,1,.711-.7m-.306,6.345a.405.405,0,0,0-.405.4v.929a.406.406,0,0,0,.405.406h.929a.406.406,0,0,0,.405-.406v-.929a.405.405,0,0,0-.405-.4Zm3.07,0a.405.405,0,0,0-.405.4v.929a.406.406,0,0,0,.405.406h.929a.408.408,0,0,0,.406-.406v-.929a.407.407,0,0,0-.406-.4Zm-3.07,3.07a.405.405,0,0,0-.405.406v.929a.406.406,0,0,0,.405.4h.929a.406.406,0,0,0,.405-.4v-.929a.405.405,0,0,0-.405-.406Zm3.07,0a.405.405,0,0,0-.405.406v.929a.406.406,0,0,0,.405.4h.929a.407.407,0,0,0,.406-.4v-.929a.407.407,0,0,0-.406-.406Zm30.8-11.424h1.126v-.859a.835.835,0,0,1,.7-.835.819.819,0,0,1,.94.81v.884h1.126a.723.723,0,0,1,.716.727v1.115H797.1v-1.115a.723.723,0,0,1,.716-.727m-5.424,10.886a.413.413,0,0,0-.412.412v1.121a.414.414,0,0,0,.412.412h1.121a.414.414,0,0,0,.412-.412V167.2a.414.414,0,0,0-.412-.412Zm-3.377,0a.413.413,0,0,0-.412.412v1.121a.414.414,0,0,0,.412.412h1.121a.414.414,0,0,0,.412-.412V167.2a.414.414,0,0,0-.412-.412Zm3.377-3.275a.413.413,0,0,0-.412.412v1.121a.414.414,0,0,0,.412.412h1.121a.414.414,0,0,0,.412-.412v-1.121a.413.413,0,0,0-.412-.411Zm-3.377,0a.414.414,0,0,0-.412.412v1.121a.414.414,0,0,0,.412.412h1.121a.414.414,0,0,0,.412-.412v-1.121a.412.412,0,0,0-.412-.411Z"/></g></svg>