<svg xmlns="http://www.w3.org/2000/svg" width="24.959" height="19.412" viewBox="0 0 24.959 19.412"><defs><style>.a{fill:#a48431;fill-rule:evenodd;}</style></defs><path class="a" d="M1676.766,192.05a6.6,6.6,0,0,1,.989,2.736s.258,2.25.258,4.5v2.074c0,2.206-.258,4.456-.258,4.456a6.592,6.592,0,0,1-.989,2.735,3.389,3.389,0,0,1-2.422,1.141l-.075.006c-3.486.309-8.736.309-8.736.309s-6.5-.044-8.477-.264c-.1-.025-.235-.044-.382-.065a3.5,3.5,0,0,1-2.372-1.127,6.576,6.576,0,0,1-.989-2.735,43.647,43.647,0,0,1-.259-4.456v-2.074c0-2.25.259-4.5.259-4.5a5.987,5.987,0,0,1,.989-2.736,3.384,3.384,0,0,1,2.422-1.14l.074-.007c3.485-.264,8.735-.308,8.735-.308s5.25.044,8.736.308l.118.01a3.188,3.188,0,0,1,2.379,1.137m-14.245,13.369v-9.574l8.175,4.9Z" transform="translate(-1653.054 -190.595)"/></svg>