<svg xmlns="http://www.w3.org/2000/svg" width="23.893" height="19.413" viewBox="0 0 23.893 19.413"><defs><style>.a{fill:#a48431;fill-rule:evenodd;}</style></defs><path class="a" d="M1712.156,192.561a9.82,9.82,0,0,1-2.816.772,4.913,4.913,0,0,0,2.155-2.711,9.8,9.8,0,0,1-3.114,1.189,4.9,4.9,0,0,0-8.48,3.353,4.963,4.963,0,0,0,.128,1.118,13.913,13.913,0,0,1-10.1-5.122,4.905,4.905,0,0,0,1.516,6.543,4.853,4.853,0,0,1-2.219-.613v.062a4.9,4.9,0,0,0,3.932,4.805,4.907,4.907,0,0,1-2.213.084,4.906,4.906,0,0,0,4.578,3.4,9.917,9.917,0,0,1-7.258,2.029,13.941,13.941,0,0,0,21.461-11.742c0-.213-.005-.423-.015-.633a9.953,9.953,0,0,0,2.447-2.537Z" transform="translate(-1688.263 -190.263)"/></svg>