<svg xmlns="http://www.w3.org/2000/svg" width="53.256" height="53.188" viewBox="0 0 53.256 53.188"><defs><style>.a{fill:#3c4146;}.b{fill:#a48431;}</style></defs><g transform="translate(-1169.534 -2198.606)"><path class="a" d="M1226.716,275.36l-1.476,1.968V243.412l1.476,1.967a.8.8,0,0,0,.654.322,1.16,1.16,0,0,0,1.036-1.837l-3.392-4.522a1.171,1.171,0,0,0-1.649-.161,1.231,1.231,0,0,0-.161.161l-3.508,4.678a.819.819,0,0,0-.128.724,1.16,1.16,0,0,0,2.053.476l1.358-1.808v33.916l-1.476-1.968a.807.807,0,0,0-.655-.322,1.161,1.161,0,0,0-1.035,1.838l3.464,4.619a.775.775,0,0,0,.326.258,1.174,1.174,0,0,0,1.411-.355l3.392-4.522a1.161,1.161,0,0,0-1.036-1.838.806.806,0,0,0-.654.322" transform="translate(-50 1969.878)"/><path class="a" d="M1272.336,232.4l-4.679-3.509a.81.81,0,0,0-.723-.127,1.16,1.16,0,0,0-.477,2.053l1.809,1.357H1234.35l1.968-1.476a.809.809,0,0,0,.322-.655,1.16,1.16,0,0,0-1.838-1.035l-4.619,3.465a.776.776,0,0,0-.259.325,1.175,1.175,0,0,0,.356,1.411l4.679,3.509a.812.812,0,0,0,.724.127,1.16,1.16,0,0,0,.476-2.053l-1.809-1.357h33.916l-1.968,1.476a.809.809,0,0,0-.322.655,1.161,1.161,0,0,0,1.838,1.035l4.619-3.465a.766.766,0,0,0,.258-.325,1.173,1.173,0,0,0-.355-1.411" transform="translate(-50 1969.878)"/><path class="b" d="M1271.593,238.957h-40.7a1.13,1.13,0,0,0-1.13,1.13v40.7a1.129,1.129,0,0,0,1.13,1.13h40.7a1.129,1.129,0,0,0,1.13-1.13v-40.7a1.129,1.129,0,0,0-1.13-1.13m-1.13,37.308h-10.082a6.8,6.8,0,0,1,6.688-5.655h3.394Zm0-7.915h-3.394a9.055,9.055,0,0,0-9.042,9.046,1.13,1.13,0,0,0,1.13,1.13h11.306v1.13h-38.439V241.217h38.439Z" transform="translate(-50 1969.878)"/><path class="a" d="M1270.463,270.61v5.655h-10.082a6.8,6.8,0,0,1,6.688-5.655Z" transform="translate(-50 1969.878)"/><path class="a" d="M1252.373,268.284a1.131,1.131,0,0,1-1.131-1.131v-9.624l-3.563,5.7a1.175,1.175,0,0,1-1.636.285,1.192,1.192,0,0,1-.286-.285l-3.559-5.7v9.589a1.154,1.154,0,0,1-.963,1.154,1.131,1.131,0,0,1-1.3-1.119V253.619a1.151,1.151,0,0,1,.727-1.089,1.131,1.131,0,0,1,1.362.458l4.694,7.51,4.677-7.483a1.152,1.152,0,0,1,1.194-.539,1.135,1.135,0,0,1,.913,1.111v13.566a1.131,1.131,0,0,1-1.131,1.131" transform="translate(-50 1969.878)"/><path class="a" d="M1260.287,252.524h-4.522a1.131,1.131,0,0,1-1.131-1.131V248a1.131,1.131,0,0,1,1.131-1.131h3.391v-1.13H1255.8a1.155,1.155,0,0,1-1.154-.963,1.131,1.131,0,0,1,1.119-1.3h4.522a1.131,1.131,0,0,1,1.131,1.13V248a1.131,1.131,0,0,1-1.131,1.13H1256.9v1.131h3.357a1.153,1.153,0,0,1,1.153.963,1.13,1.13,0,0,1-1.118,1.3" transform="translate(-50 1969.878)"/></g></svg>