<svg xmlns="http://www.w3.org/2000/svg" width="54.534" height="59.148" viewBox="0 0 54.534 59.148"><defs><style>.a,.c{fill:none;stroke:#3c4146;stroke-linecap:round;stroke-linejoin:round;}.a{stroke-width:1.597px;}.b{fill:#a48431;}.c{stroke-width:0.604px;}</style></defs><g transform="translate(-944.868 -2194.302)"><path class="a" d="M1045.809,236.16h1.943a.852.852,0,0,1,.852.852V264.9" transform="translate(-50 1969.878)"/><line class="b" x1="2.795" transform="translate(953.013 2206.038)"/><line class="a" x1="2.795" transform="translate(953.013 2206.038)"/><line class="b" x1="16.208" transform="translate(959.561 2206.038)"/><line class="a" x1="16.208" transform="translate(959.561 2206.038)"/><path class="a" d="M1048.6,279.42v2.5a.852.852,0,0,1-.852.851h-49.53a2.555,2.555,0,0,1-2.555-2.555V267.3" transform="translate(-50 1969.878)"/><path class="a" d="M995.667,267.217a2.559,2.559,0,0,1,2.562-2.553h4.609a.175.175,0,0,0,.175-.175V230.906a.175.175,0,0,0-.175-.175h-6.121a1.049,1.049,0,0,0-1.05,1.049Z" transform="translate(-50 1969.878)"/><path class="b" d="M1033.45,238.892a3.311,3.311,0,0,0,2.265.61c2.474-.017,3.373-3.446.941-4.306-.342-.122-.656-.238-.941-.355a6.231,6.231,0,0,1-1.488-.795,1.837,1.837,0,0,1,.781-3.025,2.924,2.924,0,0,1,.707-.122,2.562,2.562,0,0,1,1.759.566" transform="translate(-50 1969.878)"/><path class="a" d="M1033.45,238.892a3.311,3.311,0,0,0,2.265.61c2.474-.017,3.373-3.446.941-4.306-.342-.122-.656-.238-.941-.355a6.231,6.231,0,0,1-1.488-.795,1.837,1.837,0,0,1,.781-3.025,2.924,2.924,0,0,1,.707-.122,2.562,2.562,0,0,1,1.759.566" transform="translate(-50 1969.878)"/><line class="b" y1="1.277" transform="translate(985.749 2209.392)"/><line class="a" y1="1.277" transform="translate(985.749 2209.392)"/><line class="b" y1="1.118" transform="translate(985.749 2199.65)"/><line class="a" y1="1.118" transform="translate(985.749 2199.65)"/><path class="a" d="M1045.809,236.959v-3.433a.319.319,0,0,0-.319-.32h-2a.319.319,0,0,1-.305-.225,7.577,7.577,0,0,0-.585-1.412.316.316,0,0,1,.057-.372l1.417-1.417a.319.319,0,0,0,0-.45l-2.371-2.371a.319.319,0,0,0-.45,0l-1.417,1.417a.316.316,0,0,1-.372.057,7.583,7.583,0,0,0-1.412-.585.32.32,0,0,1-.225-.306v-2a.319.319,0,0,0-.32-.319h-3.433a.319.319,0,0,0-.319.319v2a.32.32,0,0,1-.225.306,7.565,7.565,0,0,0-1.413.585.316.316,0,0,1-.372-.057l-1.416-1.417a.319.319,0,0,0-.45,0l-2.371,2.371a.317.317,0,0,0,0,.45l1.416,1.417a.316.316,0,0,1,.057.372,7.644,7.644,0,0,0-.585,1.412.319.319,0,0,1-.305.225h-2a.32.32,0,0,0-.319.32v3.433a.32.32,0,0,0,.319.32h2a.319.319,0,0,1,.305.224,7.625,7.625,0,0,0,.585,1.413.316.316,0,0,1-.057.372l-1.416,1.417a.316.316,0,0,0,0,.449l2.371,2.372a.319.319,0,0,0,.45,0l1.416-1.417a.316.316,0,0,1,.372-.057,7.66,7.66,0,0,0,1.413.585.318.318,0,0,1,.225.305v2a.319.319,0,0,0,.319.32h3.433a.32.32,0,0,0,.32-.32v-2a.318.318,0,0,1,.225-.305,7.651,7.651,0,0,0,1.412-.585.316.316,0,0,1,.372.057l1.417,1.417a.319.319,0,0,0,.45,0l2.371-2.372a.317.317,0,0,0,0-.449l-1.417-1.417a.316.316,0,0,1-.057-.372,7.577,7.577,0,0,0,.585-1.412.319.319,0,0,1,.305-.225h2A.32.32,0,0,0,1045.809,236.959Z" transform="translate(-50 1969.878)"/><line class="b" y1="9.182" transform="translate(988.624 2225.6)"/><line class="a" y1="9.182" transform="translate(988.624 2225.6)"/><line class="b" y1="12.376" transform="translate(969.062 2222.406)"/><line class="a" y1="12.376" transform="translate(969.062 2222.406)"/><path class="b" d="M1022.628,262.349a.213.213,0,0,1-.213-.213V256.1a.214.214,0,0,1,.248-.21l12.348,2.02a.213.213,0,0,1,.179.21v4.012a.212.212,0,0,1-.213.213Z" transform="translate(-50 1969.878)"/><path class="a" d="M1022.628,262.349a.213.213,0,0,1-.213-.213V256.1a.214.214,0,0,1,.248-.21l12.348,2.02a.213.213,0,0,1,.179.21v4.012a.212.212,0,0,1-.213.213Z" transform="translate(-50 1969.878)"/><path class="b" d="M1039.612,255.865l-22.03-3.579a.213.213,0,0,1-.176-.245l.383-2.361a.213.213,0,0,1,.245-.176l22.03,3.579a.213.213,0,0,1,.176.244l-.384,2.362a.213.213,0,0,1-.244.176" transform="translate(-50 1969.878)"/><path class="a" d="M1039.612,255.865l-22.03-3.579a.213.213,0,0,1-.176-.245l.383-2.361a.213.213,0,0,1,.245-.176l22.03,3.579a.213.213,0,0,1,.176.244l-.384,2.362A.213.213,0,0,1,1039.612,255.865Z" transform="translate(-50 1969.878)"/><path class="b" d="M1020.107,249.806l.359-7.3a.212.212,0,0,1,.213-.2h3.92a.214.214,0,0,1,.213.2l.4,8.125" transform="translate(-50 1969.878)"/><path class="a" d="M1020.107,249.806l.359-7.3a.212.212,0,0,1,.213-.2h3.92a.214.214,0,0,1,.213.2l.4,8.125" transform="translate(-50 1969.878)"/><line class="b" y1="6.787" transform="translate(962.515 2227.995)"/><line class="a" y1="6.787" transform="translate(962.515 2227.995)"/><path class="b" d="M1018.982,258.117h-7.374a.211.211,0,0,1-.211-.211v-2.372a.212.212,0,0,1,.211-.212h7.374" transform="translate(-50 1969.878)"/><path class="a" d="M1018.982,258.117h-7.374a.211.211,0,0,1-.211-.211v-2.372a.212.212,0,0,1,.211-.212h7.374" transform="translate(-50 1969.878)"/><line class="b" x2="33.295" transform="translate(959.161 2234.782)"/><line class="a" x2="33.295" transform="translate(959.161 2234.782)"/><line class="b" x1="4.631" transform="translate(970.339 2215.54)"/><line class="a" x1="4.631" transform="translate(970.339 2215.54)"/><line class="b" x2="6.787" transform="translate(956.446 2209.471)"/><line class="a" x2="6.787" transform="translate(956.446 2209.471)"/><line class="b" x2="5.749" transform="translate(956.446 2212.186)"/><line class="a" x2="5.749" transform="translate(956.446 2212.186)"/><line class="b" x2="4.391" transform="translate(956.446 2214.98)"/><line class="a" x2="4.391" transform="translate(956.446 2214.98)"/><line class="b" y2="1.664" transform="translate(989.301 2244.645)"/><line class="c" y2="1.664" transform="translate(989.301 2244.645)"/><line class="b" y2="1.664" transform="translate(992.095 2244.645)"/><line class="c" y2="1.664" transform="translate(992.095 2244.645)"/><line class="b" y2="1.664" transform="translate(994.81 2244.645)"/><line class="c" y2="1.664" transform="translate(994.81 2244.645)"/></g></svg>