<svg xmlns="http://www.w3.org/2000/svg" width="50" height="50" viewBox="0 0 50 50"><defs><style>.a{fill:#af9744;}.b{fill:#fff;}</style></defs><g transform="translate(-1702 -6113.398)"><circle class="a" cx="25" cy="25" r="25" transform="translate(1702 6113.398)"/><path class="b" d="M4.955,20.865V6.787H.276V20.865Zm-2.339-16A2.44,2.44,0,1,0,2.647,0a2.439,2.439,0,1,0-.061,4.864h.03Zm4.929,16h4.679V13a3.2,3.2,0,0,1,.154-1.142,2.561,2.561,0,0,1,2.4-1.711c1.693,0,2.37,1.291,2.37,3.183v7.531h4.679V12.793c0-4.324-2.309-6.336-5.387-6.336a4.66,4.66,0,0,0-4.248,2.372h.032V6.787H7.545c.061,1.321,0,14.078,0,14.078Z" transform="translate(1716.086 6127.966)"/></g></svg>