<svg xmlns="http://www.w3.org/2000/svg" width="50" height="50" viewBox="0 0 50 50"><defs><style>.a{fill:#af9744;}.b{fill:#fff;}</style></defs><g transform="translate(-1632 -6113.398)"><circle class="a" cx="25" cy="25" r="25" transform="translate(1632 6113.398)"/><path class="b" d="M23.005,5.243a6.183,6.183,0,0,1-.859,1.231,6.341,6.341,0,0,1-1.552,1.308q.026.205.038.385a13.959,13.959,0,0,1-.987,5.347,14.081,14.081,0,0,1-5.6,6.963,14.734,14.734,0,0,1-8.771,1.6A10.071,10.071,0,0,1,0,20.041a9.821,9.821,0,0,0,7.027-2.026,4.841,4.841,0,0,1-4.462-3.308,3,3,0,0,0,1,.051A9.3,9.3,0,0,0,4.694,14.6a5.29,5.29,0,0,1-3.206-2.488A5.363,5.363,0,0,1,.949,9.756a4.506,4.506,0,0,0,2.129.641A5.5,5.5,0,0,1,.987,7a6.293,6.293,0,0,1,.577-3.065,16.119,16.119,0,0,0,5.476,4.1,11.343,11.343,0,0,0,4.3.9,5.741,5.741,0,0,1,.577-3.642,4.962,4.962,0,0,1,2.962-2.154A4.372,4.372,0,0,1,19.26,4.5,7.806,7.806,0,0,0,22.312,3.37a4.63,4.63,0,0,1-2.1,2.718A13.335,13.335,0,0,0,23,5.242Z" transform="translate(1645.497 6127.869)"/></g></svg>