<svg xmlns="http://www.w3.org/2000/svg" width="50" height="50" viewBox="0 0 50 50"><defs><style>.a{fill:#af9744;}.b{fill:#fff;}</style></defs><g transform="translate(-1562 -6113.398)"><circle class="a" cx="25" cy="25" r="25" transform="translate(1562 6113.398)"/><path class="b" d="M14.814,13.4a6.866,6.866,0,0,1,1.467.662,6.516,6.516,0,0,1,1.346.8.638.638,0,0,1,.03.225,3.168,3.168,0,0,1-.256,1.143,2.019,2.019,0,0,1-1.068.985,3.557,3.557,0,0,1-1.534.4,8.125,8.125,0,0,1-2.858-.932A8.575,8.575,0,0,1,9.385,14.9,19.835,19.835,0,0,1,7.159,12.12,5.26,5.26,0,0,1,6.092,9.2v-.12A3.326,3.326,0,0,1,7.2,6.706a1.138,1.138,0,0,1,.782-.331,2.376,2.376,0,0,1,.271.023,2.418,2.418,0,0,0,.285.023.618.618,0,0,1,.4.1,1.085,1.085,0,0,1,.233.414q.12.3.5,1.324a8.938,8.938,0,0,1,.376,1.128,1.528,1.528,0,0,1-.519.865q-.519.549-.519.7a.429.429,0,0,0,.075.225,6.781,6.781,0,0,0,1.534,2.061,9.6,9.6,0,0,0,2.271,1.519.666.666,0,0,0,.331.106q.225,0,.812-.729t.782-.729Zm-3.053,7.971a9.194,9.194,0,0,0,3.662-.752,9.3,9.3,0,0,0,5.031-5.031,9.294,9.294,0,0,0,0-7.325,9.3,9.3,0,0,0-5.031-5.031,9.294,9.294,0,0,0-7.325,0A9.3,9.3,0,0,0,3.068,8.263a9.353,9.353,0,0,0,1.053,9.2l-1.188,3.5,3.64-1.158A9.248,9.248,0,0,0,11.761,21.371Zm0-20.786a11.02,11.02,0,0,1,4.4.9A11.21,11.21,0,0,1,22.2,7.526a11.174,11.174,0,0,1,0,8.8,11.21,11.21,0,0,1-6.039,6.039,11.013,11.013,0,0,1-4.4.9,11.167,11.167,0,0,1-5.49-1.414L0,23.867l2.045-6.091a11.275,11.275,0,0,1-.722-10.25A11.21,11.21,0,0,1,7.362,1.487a11,11,0,0,1,4.4-.9Z" transform="translate(1575.449 6126.172)"/></g></svg>