<svg xmlns="http://www.w3.org/2000/svg" xmlns:xlink="http://www.w3.org/1999/xlink" width="45.819" height="60.483" viewBox="0 0 45.819 60.483"><defs><style>.a{fill:none;}.b{clip-path:url(#a);}.c{fill:#a48431;}.d{fill:#3c4146;}</style><clipPath id="a"><rect class="a" width="45.819" height="60.483" transform="translate(1229.87 128.012)"/></clipPath></defs><g transform="translate(-1497.87 -345.012)"><g class="b" transform="translate(268 217)"><path class="c" d="M1268.639,179.063V184.2l-2.54-1.705a1.762,1.762,0,0,0-1.967,0l-2.54,1.705v-5.136a10.369,10.369,0,0,0,7.047,0"/><path class="c" d="M1265.167,162.061a7.049,7.049,0,1,1-7.05,7.047,7.056,7.056,0,0,1,7.05-7.047"/><path class="d" d="M1275.689,169.107a10.526,10.526,0,0,1-3.525,7.859v8.876a2.644,2.644,0,0,1-1.4,2.335,2.673,2.673,0,0,1-1.256.315,2.616,2.616,0,0,1-1.461-.441l-2.933-1.97-2.93,1.967a2.651,2.651,0,0,1-4.12-2.2V176.97a10.568,10.568,0,1,1,17.622-7.863m-3.472,0a7.05,7.05,0,1,0-7.05,7.05,7.056,7.056,0,0,0,7.05-7.05m-3.578,15.092v-5.136a10.385,10.385,0,0,1-7.047,0V184.2l2.54-1.706a1.762,1.762,0,0,1,1.967,0Z"/><path class="d" d="M1268.639,136.825v16.527a1.761,1.761,0,1,1-3.522,0V136.825a5.287,5.287,0,0,0-5.287-5.288h-21.148a5.287,5.287,0,0,0-5.287,5.288V174.4a5.287,5.287,0,0,0,5.287,5.288h14.1a1.762,1.762,0,1,1,0,3.525h-14.1a8.812,8.812,0,0,1-8.812-8.813v-37.57a8.812,8.812,0,0,1,8.812-8.813h21.148a8.812,8.812,0,0,1,8.809,8.813"/><path class="c" d="M1255.228,155.011a1.762,1.762,0,0,1,0,3.525h-14.733a1.762,1.762,0,0,1,0-3.525Z"/><path class="c" d="M1252.83,138.588a1.763,1.763,0,0,1,0,3.525H1240.5a1.763,1.763,0,1,1,0-3.525Z"/><path class="d" d="M1252.83,146.491a1.763,1.763,0,0,1,0,3.525H1240.5a1.763,1.763,0,1,1,0-3.525Z"/><path class="d" d="M1250.224,162.061a1.761,1.761,0,1,1,0,3.522h-9.729a1.761,1.761,0,1,1,0-3.522Z"/><path class="c" d="M1249.412,169.108a1.762,1.762,0,1,1,0,3.525H1240.5a1.762,1.762,0,1,1,0-3.525Z"/></g></g></svg>