<svg xmlns="http://www.w3.org/2000/svg" width="19.619" height="19.618" viewBox="0 0 19.619 19.618"><defs><style>.a{fill:#a48431;fill-rule:evenodd;}</style></defs><path class="a" d="M1738.224,190.264H1730.3a5.851,5.851,0,0,0-5.845,5.844v7.93a5.851,5.851,0,0,0,5.845,5.844h7.929a5.851,5.851,0,0,0,5.845-5.844v-7.93a5.851,5.851,0,0,0-5.845-5.844m3.871,13.774a3.871,3.871,0,0,1-3.871,3.871h-7.93a3.871,3.871,0,0,1-3.87-3.871v-7.93a3.871,3.871,0,0,1,3.87-3.871h7.93a3.871,3.871,0,0,1,3.871,3.871Zm-12.908-3.965a5.074,5.074,0,1,1,5.074,5.074,5.08,5.08,0,0,1-5.074-5.074m5.072,3.1a3.1,3.1,0,1,1,3.1-3.1,3.1,3.1,0,0,1-3.1,3.1m5.084-6.921a1.216,1.216,0,1,0-1.216-1.216,1.216,1.216,0,0,0,1.216,1.216" transform="translate(-1724.45 -190.264)"/></svg>