<svg xmlns="http://www.w3.org/2000/svg" width="29.064" height="29.064" viewBox="0 0 29.064 29.064"><defs><style>.a{fill:#a48431;fill-rule:evenodd;}</style></defs><path class="a" d="M1620.1,190.264h-6.028v19.413h6.028Zm.493-6.15a3.5,3.5,0,1,0-3.5,3.5,3.5,3.5,0,0,0,3.5-3.5m9.065,6.15H1623.9v19.413h6.017v-9.606c0-2.524.47-4.982,3.607-4.982,3.093,0,3.126,2.895,3.126,5.151v9.437h6.017V199.039c0-5.229-1.132-9.246-7.227-9.246a6.329,6.329,0,0,0-5.7,3.13h-.078Z" transform="translate(-1613.605 -180.613)"/></svg>