<svg xmlns="http://www.w3.org/2000/svg" width="24.872" height="24.992" viewBox="0 0 24.872 24.992"><defs><style>.a{fill:#a48431;fill-rule:evenodd;}</style></defs><path class="a" d="M263,146.075c-.311-.155-1.832-.9-2.115-1.007s-.49-.155-.7.155-.8,1.007-.981,1.213-.361.233-.67.079a8.478,8.478,0,0,1-2.488-1.536,9.3,9.3,0,0,1-1.721-2.144c-.181-.309-.019-.478.135-.631.14-.14.309-.362.464-.543a2.118,2.118,0,0,0,.309-.517.571.571,0,0,0-.026-.542c-.077-.155-.7-1.678-.955-2.3-.25-.6-.506-.522-.7-.532s-.387-.011-.593-.011a1.134,1.134,0,0,0-.825.388,3.465,3.465,0,0,0-1.083,2.58,6.026,6.026,0,0,0,1.263,3.2,13.8,13.8,0,0,0,5.287,4.672,17.759,17.759,0,0,0,1.764.652,4.227,4.227,0,0,0,1.949.123,3.189,3.189,0,0,0,2.089-1.471,2.588,2.588,0,0,0,.181-1.473c-.077-.128-.285-.206-.593-.361m-5.647,7.709h0a10.289,10.289,0,0,1-5.24-1.435l-.376-.224-3.9,1.022,1.04-3.8-.245-.39a10.293,10.293,0,1,1,8.719,4.824m8.761-19.055a12.388,12.388,0,0,0-19.493,14.942l-1.756,6.418,6.564-1.721a12.387,12.387,0,0,0,5.918,1.507h.006a12.391,12.391,0,0,0,8.761-21.146" transform="translate(-244.863 -131.098)"/></svg>