<svg xmlns="http://www.w3.org/2000/svg" width="58.412" height="58.568" viewBox="0 0 58.412 58.568"><defs><style>.a{fill:#3c4146;}.b{fill:#a48431;}</style></defs><g transform="translate(-942.929 -2093.471)"><path class="a" d="M1030.434,165.95v11.527a.925.925,0,0,1-.687.908l-.012,0a.93.93,0,0,1-.43,0,.92.92,0,0,1-.7-.893V165.95a.878.878,0,0,0-.286-.648,1.2,1.2,0,0,0-.805-.3H1023v12.459a.846.846,0,0,1-.858.919,1.01,1.01,0,0,1-.973-.919V165.116h-4.4a1.192,1.192,0,0,0-.79.3.876.876,0,0,0-.3.639v11.418a.908.908,0,0,1-1.04.9.938.938,0,0,1-.79-.94V165.944a2.686,2.686,0,0,1,.881-1.981,2.975,2.975,0,0,1,2.034-.789h10.752a2.955,2.955,0,0,1,2.037.789,2.71,2.71,0,0,1,.884,1.987" transform="translate(-50 1969.878)"/><path class="a" d="M1031.114,150.818h-5.942a.913.913,0,0,0-.916.913v5.6a.922.922,0,0,0,.919.92h5.954a.905.905,0,0,0,.905-.9v-5.612a.921.921,0,0,0-.92-.919m-.91,5.606h-4.117v-3.776h4.117Zm-2.028-11.1h-2.09v-4.66a.9.9,0,0,0-1.037-.9.974.974,0,0,0-.793.94v5.544a.908.908,0,0,0,.908.9h2.985a.959.959,0,0,0,.926-.775.92.92,0,0,0-.9-1.055m-9.057-5.491h-5.969a.905.905,0,0,0-.905.913v5.615a.908.908,0,0,0,.905.908h5.969a.907.907,0,0,0,.9-.908v-5.62a.907.907,0,0,0-.9-.908m-.926,5.606h-4.117v-3.776h4.117Zm.926,5.376h-5.969a.9.9,0,0,0-.905.913v5.615a.908.908,0,0,0,.905.908h5.969a.906.906,0,0,0,.9-.9v-5.623a.906.906,0,0,0-.9-.908m-.926,5.606h-4.117v-3.776h4.117Z" transform="translate(-50 1969.878)"/><rect class="b" width="4.117" height="3.776" transform="translate(976.087 2122.526)"/><rect class="b" width="4.117" height="3.776" transform="translate(964.076 2122.526)"/><rect class="b" width="4.117" height="3.776" transform="translate(964.076 2111.544)"/><path class="a" d="M1043.75,126.493A9.9,9.9,0,0,0,1028.1,138.33l7.846,13.3a1.056,1.056,0,0,0,.336.336.913.913,0,0,0,1.244-.324l7.872-13.323a9.84,9.84,0,0,0,.935-2.331,9.886,9.886,0,0,0-2.579-9.494m.816,9.04a7.873,7.873,0,0,1-.752,1.878l-7.07,11.978-7.095-12.005a8.49,8.49,0,0,1-.737-1.851,8.623,8.623,0,0,1-.247-2.034,8.08,8.08,0,1,1,15.9,2.034" transform="translate(-50 1969.878)"/><path class="a" d="M1040.475,129.77a5.27,5.27,0,0,0-7.472,0,5.209,5.209,0,0,0-1.541,3.729,5.268,5.268,0,0,0,1.541,3.743,5.289,5.289,0,0,0,9.025-3.743,5.219,5.219,0,0,0-1.553-3.729m-1.3,6.178a3.44,3.44,0,1,1,1.023-2.449,3.407,3.407,0,0,1-1.023,2.449" transform="translate(-50 1969.878)"/><path class="b" d="M1040.2,133.5a3.407,3.407,0,0,1-1.023,2.449,3.459,3.459,0,1,1,0-4.9,3.419,3.419,0,0,1,1.023,2.446" transform="translate(-50 1969.878)"/><path class="a" d="M1041.007,168.091a.972.972,0,0,1-.939-.791.9.9,0,0,1,.9-1.039h3.293a2.78,2.78,0,0,1,2.588,1.708l4.282,10.427a2.616,2.616,0,0,1,.194,1.32,2.769,2.769,0,0,1-2.781,2.445H995.734a2.79,2.79,0,0,1-2.794-2.445,2.935,2.935,0,0,1,.194-1.32l4.3-10.427a2.78,2.78,0,0,1,2.588-1.708h3.241a.96.96,0,0,1,.925.774.916.916,0,0,1-.9,1.056h-3.246a.926.926,0,0,0-.9.582l-4.278,10.416a.833.833,0,0,0-.077.427.989.989,0,0,0,.5.711,1.119,1.119,0,0,0,.478.1h52.756a1.027,1.027,0,0,0,.466-.1.925.925,0,0,0,.5-.711.822.822,0,0,0-.065-.427l-4.277-10.416a.927.927,0,0,0-.905-.582Z" transform="translate(-50 1969.878)"/><path class="b" d="M1028.6,165.95v10.6H1023V165h4.515a1.192,1.192,0,0,1,.805.3.875.875,0,0,1,.286.648" transform="translate(-50 1969.878)"/><path class="b" d="M1021.167,165.116v11.439h-5.491v-10.5a.877.877,0,0,1,.3-.639,1.19,1.19,0,0,1,.79-.3Z" transform="translate(-50 1969.878)"/><path class="a" d="M1037.64,155.64v21.84a.91.91,0,0,1-.908.9h-29.185a.906.906,0,0,1-.908-.9V137.46a2.669,2.669,0,0,1,.885-1.971,2.967,2.967,0,0,1,2.036-.8h14.4a.961.961,0,0,1,.946.852.91.91,0,0,1-.905.978H1009.56a1.147,1.147,0,0,0-.8.295.875.875,0,0,0-.286.645v39.095h27.34V155.622h.006a.912.912,0,1,1,1.824.018" transform="translate(-50 1969.878)"/></g></svg>