<svg xmlns="http://www.w3.org/2000/svg" xmlns:xlink="http://www.w3.org/1999/xlink" width="38.137" height="57.252" viewBox="0 0 38.137 57.252"><defs><style>.a{fill:none;}.b{clip-path:url(#a);}.c{fill:#a48431;}.d{fill:#3c4146;}</style><clipPath id="a"><rect class="a" width="38.137" height="57.252" transform="translate(765.427 225.221)"/></clipPath></defs><g transform="translate(-765.427 -225.221)"><g class="b"><path class="c" d="M780.338,226.7h12.1c-.1,1.043-.4,3.237-.79,6.115l-10.456-.138c-.431-2.8-.744-4.944-.859-5.977"/><path class="c" d="M772.355,235.188v.237a5.6,5.6,0,0,0-.112,1.1l-.177,12.769a4.938,4.938,0,0,0,.141,1.181l-5.289-.069.2-15.22Z"/><path class="d" d="M802.775,265.931a10.919,10.919,0,0,0,.79,2.931c-.106,8.772-6.207,13.611-17.181,13.611-11.072,0-17.174-4.924-17.174-13.842a24.68,24.68,0,0,1,3.836-12.769,24.27,24.27,0,0,1,1.681-2.339,8.213,8.213,0,0,1-1.974-1.8h-7.325l.246-18,7.793.106a17.377,17.377,0,0,1,1.355-1.106l4.5-2.828-.105-.7c-.477-3.342-.444-3.378-.2-3.671a.913.913,0,0,1,.536-.3h13.658a.91.91,0,0,1,.536.3c.247.28.28.316-.151,3.717-.128.97-.293,2.174-.49,3.579l4.1.082a2.394,2.394,0,0,1,1.73.829,2.987,2.987,0,0,1,.71,1.858v.984a2.9,2.9,0,0,1-.862,1.951.361.361,0,0,1,.1.1,5.737,5.737,0,0,1,.766,1.872v.98a5.637,5.637,0,0,1-.921,1.941l.1.1a5.115,5.115,0,0,1,.7,1.872v.97a5.224,5.224,0,0,1-.855,1.95,2.62,2.62,0,0,1,.74,1.964v.984A2.61,2.61,0,0,1,798.1,253.6c.223.269.434.549.644.828l.323-.128a3.537,3.537,0,0,0,1.023,2.115,3.408,3.408,0,0,0,.441.369l.96,1.4-.27.384-.947,1.3-1,1.4,1.9,1.02.6.316.148,3.1v.3h.052Zm-.618,1.309h-.579a1.041,1.041,0,0,1-1-.957l-.175-2.856-2.181-1.154c-.049-.036-.095-.059-.141-.1a1,1,0,0,1-.211-1.4l1.714-2.392a22.744,22.744,0,0,0-3.079-4.513h-.075l-11.819-.112-7.858.227h-.135l-.467-.072a21.221,21.221,0,0,0-1.948,2.628,23.273,23.273,0,0,0-3.634,12.056c0,10.305,8.6,12.476,15.818,12.476s15.832-2.171,15.832-12.476c0-.458-.023-.9-.059-1.362m-3.865-30.7v-.98a2.63,2.63,0,0,0-.356-.915.975.975,0,0,0-.736-.358h-.773l-3.52-.116h-1.414l-10.125-.111h-.9a.654.654,0,0,1-.563-.267.664.664,0,0,1-.128-.329l-.256-2.033-3.954,2.477c-.408.27-1.967,1.836-1.967,1.836v14.6a3.393,3.393,0,0,0,2.115,2.066,4.907,4.907,0,0,0,1.029.263l.724-.04,7.1-.338h.033l7.161.115a.473.473,0,0,1,.188-.036l3.168.055,1.848.093h.161a1.853,1.853,0,0,0,.586-.382,2.369,2.369,0,0,0,.352-.914v-.971s-.467-1.263-1.076-1.273l-4.408-.085h-.572a.714.714,0,0,1-.681-.606.36.36,0,0,1-.01-.1.72.72,0,0,1,.714-.691l5.013.043h.013c.6.053,1.122-1.187,1.122-1.187v-1.069a1.4,1.4,0,0,0-.322-.9,1.045,1.045,0,0,0-.7-.356h-.033l-4.934-.092a.688.688,0,0,1-.5-.22.763.763,0,0,1-.184-.484.638.638,0,0,1,.345-.572.569.569,0,0,1,.332-.1l4.921.109h.013c.6,0,1.063-1.237,1.063-1.237v-1.073a1.352,1.352,0,0,0-.329-.881,1.031,1.031,0,0,0-.75-.342l-4.921-.089h-.118a.693.693,0,0,1-.678-.7v-.01a.676.676,0,0,1,.714-.648h.332l4.733.115h.014c.595-.016,1.115-1.256,1.115-1.256m-5.849-9.842h-12.1c.115,1.033.428,3.178.859,5.977l10.457.138c.394-2.878.684-5.072.789-6.115m-20.088,8.73v-.237h-5.237l-.2,15.22,5.289.069a4.938,4.938,0,0,1-.141-1.181l.177-12.769a5.6,5.6,0,0,1,.112-1.1"/><path class="d" d="M798.1,270.638h1.4c0,3.789-2.724,6.875-6.082,6.875v-1.4c2.585,0,4.677-2.458,4.677-5.474"/><path class="c" d="M791.269,268.276v.306a3.062,3.062,0,0,1-3.236,2.848h-.727v1.5a.685.685,0,0,1-.767.674.7.7,0,0,1-.592-.707V271.43h-3.671a.683.683,0,0,1-.674-.766.7.7,0,0,1,.707-.592h3.638V266.9h-1.273a3.07,3.07,0,0,1-3.256-2.842v-.319a3.076,3.076,0,0,1,3.256-2.842h1.273V258.95a.68.68,0,0,1,.766-.674.7.7,0,0,1,.593.7V260.9h3.161a.682.682,0,0,1,.674.766.7.7,0,0,1-.7.592h-3.131v3.171h.727a3.065,3.065,0,0,1,3.236,2.849m-1.358.361v-.3a1.692,1.692,0,0,0-1.869-1.434h-.736v3.171h.736a1.692,1.692,0,0,0,1.869-1.435m-3.964-3.21v-3.171H784.7a1.658,1.658,0,0,0-1.809,1.428V264a1.655,1.655,0,0,0,1.809,1.428Z"/></g></g></svg>